PathFileType	4	(X/Y/Z)	./resultDataOpenSim/trcMotMarkerGrf/sub06/qtm-05-06.trc
DataRate	CameraRate	NumFrames	NumMarkers	Units	OrigDataRate	OrigDataStartFrame	OrigNumFrames
250.000000	250.000000	7	24	m	250.000000	391	521
Frame#	Time	L.Toe.Tip			R.Toe.Tip			L.Ankle.Lat			R.Ankle.Lat			L.Ankle.Med			R.Ankle.Med			L.Heel			R.Heel			L.Knee.Lat			R.Knee.Lat			L.Knee.Med			R.Knee.Med			L.Thigh.Upper			R.Thigh.Upper			L.ASIS			R.ASIS			V.Sacral			L.Acromium			R.Acromium			C7			L.Elbow			R.Elbow			L.Wrist.Lat			R.Wrist.Lat
		X1	Y1	Z1	X2	Y2	Z2	X3	Y3	Z3	X4	Y4	Z4	X5	Y5	Z5	X6	Y6	Z6	X7	Y7	Z7	X8	Y8	Z8	X9	Y9	Z9	X10	Y10	Z10	X11	Y11	Z11	X12	Y12	Z12	X13	Y13	Z13	X14	Y14	Z14	X15	Y15	Z15	X16	Y16	Z16	X17	Y17	Z17	X18	Y18	Z18	X19	Y19	Z19	X20	Y20	Z20	X21	Y21	Z21	X22	Y22	Z22	X23	Y23	Z23	X24	Y24	Z24

391	1.56	1.3026561	0.080717426	-0.041428418	0.90283898	0.035814715	0.1302148	1.1819541	0.12031009	-0.049158164	0.76698913	0.064721095	0.14592864	1.2006651	0.13723975	0.031922528	0.79361455	0.085322973	0.060576437	1.1127312	0.094418052	0.0029782548	0.71423837	0.045121905	0.083249684	1.25631	0.49433835	-0.063845787	0.90734523	0.43042712	0.18409984	1.2492303	0.48368329	0.056760134	0.878796	0.43216638	0.054704637	1.030572	0.8175387	-0.09531275	0.97094002	0.79134992	0.250185	1.0870631	0.86220146	-0.037293464	1.0723587	0.84670342	0.2088108	0.89469582	0.92089623	0.078606342	1.0164118	1.3349623	-0.095613632	1.0223656	1.3245739	0.26585677	0.9381451	1.362879	0.087301084	0.90768163	1.0432267	-0.15013611	1.040804	1.0016846	0.34426543	0.97332926	0.81374141	-0.2008729	1.2853898	0.98847125	0.27826855
392	1.564	1.3200802	0.081273922	-0.041110106	0.90291628	0.035765356	0.13018055	1.1981971	0.11689675	-0.048492983	0.76723752	0.065036031	0.145936	1.2165889	0.13418371	0.032640537	0.79394039	0.085534114	0.060562826	1.1299112	0.088950942	0.0038918486	0.71425737	0.045712819	0.083463331	1.2618502	0.49275499	-0.063318835	0.90969241	0.42985905	0.18424627	1.2550763	0.48205547	0.057239896	0.88160423	0.43158277	0.054783699	1.0370269	0.81611803	-0.095365661	0.97558206	0.7901195	0.25005273	1.0934177	0.86047082	-0.037091704	1.0776245	0.84509614	0.20909966	0.90073486	0.91972405	0.07824687	1.0220253	1.3333516	-0.095856663	1.0283771	1.3230535	0.26592706	0.94388148	1.361566	0.087229593	0.9118242	1.0422435	-0.14999848	1.0477197	1.0000917	0.34443519	0.97561916	0.81248758	-0.2014108	1.2919461	0.98898893	0.27674315
393	1.568	1.3374195	0.082058915	-0.040695476	0.90299402	0.03571669	0.13014552	1.2144543	0.11366445	-0.047842787	0.7674981	0.065385496	0.14593668	1.2321812	0.13121288	0.03357301	0.79428202	0.085750002	0.060527705	1.147147	0.08368532	0.0047155469	0.71427863	0.046355913	0.083675614	1.267259	0.49101921	-0.062820058	0.91196956	0.42921146	0.18443181	1.2608446	0.48029467	0.057725032	0.88448034	0.43098353	0.054848343	1.0434832	0.81462706	-0.09541291	0.98025881	0.78889294	0.24991751	1.0997843	0.85866448	-0.036894293	1.0829095	0.84339512	0.20945754	0.90676474	0.91853507	0.077923204	1.0276571	1.3317239	-0.096114488	1.0344287	1.3214888	0.26599408	0.94963001	1.3602335	0.08716356	0.91604535	1.0412307	-0.14986561	1.0546588	0.99846648	0.34461237	0.97802331	0.81122557	-0.20193598	1.2984622	0.98937536	0.27526372
394	1.572	1.3546479	0.083092305	-0.040197028	0.90307392	0.035670604	0.13010969	1.2307114	0.1106409	-0.047205676	0.7677801	0.065756396	0.14592379	1.2474296	0.12832569	0.0347183	0.79464201	0.08598165	0.060476158	1.1644199	0.078644174	0.00543882	0.71438873	0.047022352	0.083749498	1.2725367	0.48913948	-0.062345328	0.9143425	0.42853909	0.18460024	1.2665331	0.47841187	0.058209263	0.8874435	0.43037004	0.054884149	1.0499413	0.8130688	-0.095451992	0.98498704	0.787667	0.24978978	1.1061856	0.85678561	-0.036724065	1.0882167	0.84163247	0.20984008	0.9128043	0.91731968	0.077592578	1.0333076	1.3300836	-0.096383738	1.0405168	1.3198855	0.26605398	0.9553926	1.358889	0.087108205	0.92033251	1.0402019	-0.1497473	1.061598	0.99680185	0.34477617	0.98054384	0.80996204	-0.20245497	1.3049317	0.98963069	0.27382038
395	1.576	1.371735	0.084392123	-0.039630538	0.90315531	0.035628708	0.13007504	1.2469582	0.10785155	-0.046582995	0.76807448	0.066147053	0.14589351	1.262477	0.1255854	0.035954737	0.79502331	0.086238695	0.060414646	1.1817134	0.073834161	0.0061012635	0.71460185	0.047704849	0.083657667	1.277686	0.48712287	-0.061893717	0.91688411	0.42787327	0.18472978	1.2721384	0.47641662	0.058686323	0.8905072	0.42974637	0.054884382	1.05641	0.81144921	-0.095486506	0.98976532	0.78643367	0.24966261	1.112652	0.85483851	-0.036591034	1.0935551	0.83983301	0.21022294	0.91887351	0.91608118	0.077203233	1.0389738	1.3284343	-0.096657163	1.0466413	1.3182515	0.26610271	0.96117453	1.3575324	0.087047532	0.92468782	1.0391619	-0.14963651	1.068533	0.99510109	0.3449221	0.9831767	0.80870189	-0.20297176	1.3113587	0.98975108	0.2724147
396	1.58	1.3886494	0.085956309	-0.038986011	0.90323513	0.035591056	0.13004563	1.2631696	0.10531656	-0.045983797	0.76835749	0.066573479	0.14584795	1.2775393	0.12307618	0.037128959	0.79542888	0.086529151	0.060351474	1.1990087	0.069266622	0.0067731	0.71486024	0.048427132	0.083483575	1.2827222	0.48497448	-0.06146435	0.91957884	0.42722689	0.18482589	1.2776555	0.47431673	0.059163193	0.89364505	0.42913251	0.054861173	1.0628955	0.80977562	-0.09552059	0.9945572	0.78517979	0.24949025	1.1191921	0.85283261	-0.036480029	1.0989359	0.8380143	0.21059645	0.92496725	0.91482742	0.07672371	1.0446526	1.3267796	-0.09693249	1.0528031	1.3165976	0.26613724	0.96697652	1.3561659	0.086968149	0.92912648	1.0381108	-0.14951611	1.0754632	0.99337433	0.34504992	0.9859206	0.80744813	-0.20348881	1.3177519	0.98973704	0.27105363
397	1.584	1.4053591	0.087762583	-0.03823675	0.90330935	0.035554763	0.13002324	1.2793011	0.10305357	-0.0454228	0.76861206	0.067052978	0.14579391	1.2927343	0.12084435	0.038192834	0.7958592	0.086860317	0.06029537	1.2162801	0.064964026	0.0075057532	0.7151065	0.049219277	0.083317186	1.2876674	0.48270281	-0.061049816	0.92236405	0.42661348	0.18490279	1.283082	0.47212201	0.059663725	0.8968019	0.42855624	0.054843062	1.0693927	0.80805118	-0.095544887	0.9992846	0.78388454	0.24918057	1.1257661	0.85078286	-0.036355656	1.1043731	0.83619212	0.21095577	0.93105135	0.91355856	0.076172312	1.0503426	1.3251243	-0.097213633	1.059002	1.3149358	0.26615387	0.97279481	1.3547862	0.086880327	0.93365841	1.03705	-0.14937678	1.0823854	0.9916342	0.34515669	0.98877808	0.80620001	-0.20400449	1.3241212	0.98959202	0.26974027
